<svg id="Layer_1" data-name="Layer 1" xmlns="http://www.w3.org/2000/svg" viewBox="0 0 250 100"><defs><style>.cls-1,.cls-2{fill:#010101;}.cls-1{fill-rule:evenodd;}</style></defs><path class="cls-1" d="M34.77,64.49c-7.53,0-14-6.9-14-14.43s6.29-14.54,13.9-14.54c5,0,8.62,2.45,11.55,6.28h3.68a16.61,16.61,0,0,0-4.09-5.3,17.78,17.78,0,0,0-11.08-4,17.53,17.53,0,0,0,.06,35.06,17.38,17.38,0,0,0,10.7-3.86,21.86,21.86,0,0,0,4.54-5.62H46.39c-2.9,3.83-6.61,6.44-11.62,6.44"/><path class="cls-1" d="M73,46.14a11.58,11.58,0,0,0-9.36-4.91,12.83,12.83,0,0,0,0,25.65c4.06,0,6.89-1.71,9.36-4.86v4.3h3V41.83H73ZM63.44,64.05c-5.35,0-9.57-4.7-9.57-10s4.19-10,9.57-10S73,48.78,73,54.05s-4.19,10-9.51,10"/><rect class="cls-2" x="79.67" y="33.18" width="3.26" height="33.14"/><polygon class="cls-1" points="95.22 62.42 86.99 41.83 83.77 41.83 93.63 66.32 96.91 66.32 106.76 41.83 103.58 41.83 95.22 62.42"/><rect class="cls-2" x="108.09" y="41.83" width="3.26" height="24.48"/><rect class="cls-2" x="108.09" y="33.18" width="3.26" height="5.49"/><path class="cls-1" d="M125.36,41.23c-3.06,0-5.24,1.63-7.26,3.8v-3.2h-3V66.32h3.19V51.39a7.3,7.3,0,0,1,7.13-7.34c4.92,0,7.39,4.32,7.39,8.78V66.32h3V52.83c0-6.35-3.68-11.6-10.46-11.6"/><polygon class="cls-1" points="166.02 33.18 151.23 52.18 151.23 33.18 148.03 33.18 148.03 66.32 151.23 66.32 151.23 57.21 155.42 51.94 166.1 66.32 170.16 66.32 157.47 49.32 170.16 33.18 166.02 33.18"/><rect class="cls-2" x="171.34" y="33.18" width="3.18" height="33.14"/><path class="cls-1" d="M200.78,48a12.79,12.79,0,0,0-11.25-6.76,12.83,12.83,0,1,0,9,22,14.64,14.64,0,0,0,3.1-5h-3.42c-1.72,3.4-4.75,5.76-8.68,5.76A9.63,9.63,0,0,1,183,61.42a9.78,9.78,0,0,1-3-6.2h22.33A14.51,14.51,0,0,0,200.78,48M180.14,52.4c1-4.59,4.54-8.35,9.44-8.35a9.45,9.45,0,0,1,9.49,8.35Z"/><rect class="cls-2" x="204.75" y="41.83" width="3.19" height="24.48"/><rect class="cls-2" x="204.75" y="33.18" width="3.19" height="5.6"/><path class="cls-1" d="M222,41.23c-3.12,0-5.31,1.63-7.35,3.8v-3.2h-3.07V66.32h3.23V51.39a7.36,7.36,0,0,1,7.24-7.34c4.9,0,7.47,4.32,7.47,8.78V66.32h3V52.83c0-6.35-3.75-11.6-10.54-11.6"/></svg>