<svg id="Layer_1" data-name="Layer 1" xmlns="http://www.w3.org/2000/svg" viewBox="0 0 250 100"><defs><style>.cls-1{fill:#fff;}.cls-2{fill:#e30d21;fill-rule:evenodd;}</style></defs><path class="cls-1" d="M180.85,44.18c0-.44-.27-.63-.79-.63h-.84v2.18h.36V44.8h.34l.57.93h.4l-.61-1a.56.56,0,0,0,.57-.59m-1.27.31v-.63H180c.21,0,.47,0,.47.29s-.24.34-.5.34Zm.39-1.85a2,2,0,1,0,1.93,2,1.9,1.9,0,0,0-1.93-2m0,3.59a1.52,1.52,0,0,1-1.52-1.62,1.52,1.52,0,1,1,3,0A1.52,1.52,0,0,1,180,46.23"/><path class="cls-2" d="M125,13.25C87.33,13.25,56.78,29.7,56.78,50S87.33,86.75,125,86.75,193.22,70.3,193.22,50,162.67,13.25,125,13.25"/><path class="cls-1" d="M138.77,57.67a6.91,6.91,0,0,1-.67-1.38,2.29,2.29,0,0,1-.11-.62c.09-1.56.3-8.51.31-8.7,0-.67.14-1.19-.38-1.73s-1.17-1.22-1.27-1.31a2.26,2.26,0,0,0-1.82-.63c-1.05,0-3.11-.07-3.27-.07a1.69,1.69,0,0,0-1.31.31c-.65.34-1.51,1-1.76,1.14a1.13,1.13,0,0,0-.6.94c-.08.57-.26,1.21-.33,1.82s.14.67.53.64L130,48a.69.69,0,0,0,.76-.58c0-.12.37-1,.54-1.51s.32-.63.64-.68c.53-.07.63-.11,1-.15a1.33,1.33,0,0,1,1,.1c.12.07.53.37.92.63a.83.83,0,0,1,.46.87c0,.14.05,1.35,0,1.58s.14.82-.29.77-1.1-.42-2.18-.56a2.21,2.21,0,0,0-1,0c-.51.17-1.41.52-1.51.56-.85.36-1,.46-2.1,1a1.8,1.8,0,0,0-1.14,1.57c-.11.88-.2,3.11-.21,3.25a2.06,2.06,0,0,0,.89,1.84c.8.6,1.7,1.28,1.92,1.43a2.08,2.08,0,0,0,2.1.18c1-.53,3-1.53,3.05-1.56s.25-.16.28-.06.11.3.13.35a1,1,0,0,0,.26.34c.52.53.94,1,1.34,1.4a3.33,3.33,0,0,0,2.25,1.35c1.25.3,1.33.32,1.57.36a4.8,4.8,0,0,0,2.24-.09c1.79-.27,1.91-.31,2.09-.35s.91-.09,1.21-1.29.46-1.87.5-2.12.28-.76-.48-.72-1.1.07-1.3.09c-.41,0-.65.12-.76.85s-.06,1.33-.83,1.67a4.16,4.16,0,0,1-1.4.42,3.39,3.39,0,0,1-1.49,0,2.12,2.12,0,0,1-1.67-1.22m-3.57-6.14c0,.54,0,2.09,0,2.31,0,.46,0,.76-.38.91-.18.08-1.3.68-2,1a1.19,1.19,0,0,1-1.15.05c-.4-.21-.56-.25-1.05-.55a1,1,0,0,1-.55-.86c0-.47-.11-1.62-.13-2a1,1,0,0,1,.61-1c.22-.14,1.21-.62,1.53-.77a2.33,2.33,0,0,1,1.23-.18c.2,0,1.15.31,1.48.41a.7.7,0,0,1,.4.72"/><path class="cls-1" d="M97.46,57.15c-.39-.34-.94-.78-1.18-1a.48.48,0,0,1-.16-.4c.15-1.57.81-8.63.82-8.82a2,2,0,0,0-.62-1.7l-1.23-1.3a2.9,2.9,0,0,0-2-.79c-1,0-2.85-.07-3-.07a2.93,2.93,0,0,0-1.84.49l-1.35.86a1.46,1.46,0,0,0-.69,1c-.11.66-.29,1.7-.31,1.86-.07.47.12.67.51.65l1.91-.12c.39,0,.58-.13.74-.61l.56-1.62A.69.69,0,0,1,90.2,45c.45-.08,1-.15,1.14-.17a1.12,1.12,0,0,1,.84.18l.93.65a.87.87,0,0,1,.36.69c0,.14,0,2.22,0,2.22s0,.36-.43.22a8,8,0,0,0-2.78-.57,9.49,9.49,0,0,0-1.44.46c-.47.21-1.16.52-1.88.87a4.78,4.78,0,0,0-1.16.74,2.06,2.06,0,0,0-.53,1.56c-.06.87-.19,2.78-.18,2.92a2,2,0,0,0,.81,1.66L88,58a2.22,2.22,0,0,0,2,.18l3.25-1.67s.13,0,.17.09a1,1,0,0,1,0,.18.77.77,0,0,0,.23.33c.49.4,1.5,1.27,1.56,1.33a.83.83,0,0,0,1,.12c.78-.42,1.19-.68,1.25-.71.45-.25.33-.38,0-.68m-4-5.8c0,.14,0,1.94,0,2.61a.64.64,0,0,1-.34.63c-.17.1-1.47.76-2.18,1.13a1.12,1.12,0,0,1-.93,0c-.18-.09-.78-.41-1.12-.57a1,1,0,0,1-.51-.81c0-.2-.09-1.35-.13-2a1.09,1.09,0,0,1,.31-.91c.15-.12.71-.41,1-.58a8.2,8.2,0,0,1,1.12-.5,2.22,2.22,0,0,1,1.54.1,6.84,6.84,0,0,1,1,.29.74.74,0,0,1,.26.63"/><path class="cls-1" d="M121.35,57.15c-.39-.35-.93-.79-1.17-1a.43.43,0,0,1-.16-.39c.14-1.57.8-8.63.82-8.82a2,2,0,0,0-.63-1.7L119,43.93a2.81,2.81,0,0,0-2-.79c-1.06,0-2.85-.07-3-.08a2.94,2.94,0,0,0-1.84.5l-1.35.85a1.49,1.49,0,0,0-.68,1c-.12.65-.3,1.7-.32,1.85-.07.48.13.67.52.66l1.9-.13c.4,0,.58-.12.74-.6,0-.11.38-1.1.57-1.63a.69.69,0,0,1,.63-.53c.44-.08,1-.15,1.14-.16a1.14,1.14,0,0,1,.84.18c.12.07.83.57.93.64a1,1,0,0,1,.36.7c0,.14,0,2.22,0,2.22s0,.35-.43.21a8,8,0,0,0-2.78-.57,9.37,9.37,0,0,0-1.44.47c-.46.2-1.15.51-1.88.87a4.42,4.42,0,0,0-1.15.73,2.12,2.12,0,0,0-.54,1.57c-.05.87-.18,2.77-.18,2.92a2.06,2.06,0,0,0,.82,1.66l2,1.52a2.25,2.25,0,0,0,2,.18l3.25-1.67a.11.11,0,0,1,.17.08,1.67,1.67,0,0,1,0,.18.82.82,0,0,0,.24.34l1.56,1.32a.82.82,0,0,0,1,.13c.77-.42,1.18-.68,1.25-.72.37-.21.26-.43,0-.67m-4-5.8V54a.67.67,0,0,1-.33.64l-2.19,1.12a1.1,1.1,0,0,1-.92,0c-.19-.09-.79-.41-1.13-.57a1,1,0,0,1-.5-.81c0-.2-.1-1.36-.14-2a1,1,0,0,1,.32-.9c.15-.12.71-.42,1-.58a8.42,8.42,0,0,1,1.12-.51,2.35,2.35,0,0,1,1.54.1,7.41,7.41,0,0,1,1,.3.76.76,0,0,1,.26.63"/><path class="cls-1" d="M165.52,57.15c-.38-.34-.93-.79-1.17-1a.45.45,0,0,1-.16-.4c.15-1.57.81-8.63.83-8.82a2,2,0,0,0-.64-1.7l-1.21-1.3a2.94,2.94,0,0,0-2-.79c-1.06,0-2.85-.07-3-.07a3,3,0,0,0-1.85.49l-1.34.86a1.46,1.46,0,0,0-.69,1c-.11.66-.29,1.7-.32,1.86-.07.47.13.67.52.65l1.91-.12c.39,0,.58-.13.73-.61l.57-1.62a.68.68,0,0,1,.63-.53c.44-.08,1-.15,1.14-.17a1.13,1.13,0,0,1,.84.18c.12.08.83.57.93.65a.87.87,0,0,1,.36.69c0,.14,0,2.22,0,2.22s0,.36-.43.22a7.66,7.66,0,0,0-2.77-.57,9.49,9.49,0,0,0-1.44.46c-.47.21-1.16.51-1.89.87a4.6,4.6,0,0,0-1.15.74,2.06,2.06,0,0,0-.53,1.56c-.06.88-.19,2.78-.18,2.92a2,2,0,0,0,.81,1.66L156,58a2.2,2.2,0,0,0,2,.18l3.26-1.67c.05,0,.13,0,.17.09l0,.17a.74.74,0,0,0,.23.34c.49.4,1.5,1.27,1.56,1.33a.83.83,0,0,0,1,.12c.78-.42,1.19-.68,1.25-.71.38-.21.26-.43,0-.68m-4-5.8c0,.14,0,1.94,0,2.61a.66.66,0,0,1-.34.63L159,55.71a1.08,1.08,0,0,1-.93,0c-.18-.09-.79-.41-1.13-.57a1,1,0,0,1-.5-.81c0-.2-.09-1.35-.13-2a1.05,1.05,0,0,1,.32-.9c.14-.12.7-.41,1-.58a8.25,8.25,0,0,1,1.13-.5,2.22,2.22,0,0,1,1.54.1,7.94,7.94,0,0,1,1,.29.76.76,0,0,1,.25.63"/><path class="cls-1" d="M105.31,57.13c.09-.34,3-10.36,3.75-13.05.14-.5-.06-.87-.45-.89s-.93,0-1.3,0a.87.87,0,0,0-.8.59c-.63,2.16-2.91,9.93-3,10.22s-.36.31-.42,0-1.78-9.95-1.85-10.22-.16-.58-.76-.6l-2.12,0c-.54,0-.88.12-.75.6s2.69,10.74,3.37,13.44a.82.82,0,0,0,.94.54c.36,0,.75-.09,1-.13a2.7,2.7,0,0,1,1.2.05l.5.11c.29.06.65-.26.75-.65"/><path class="cls-1" d="M122.49,47.87c0,.5,0,7,0,9.15a.67.67,0,0,0,.68.75l1,0a.69.69,0,0,0,.79-.71c.2-2.27.79-9.07.82-9.37a.54.54,0,0,0-.58-.62l-2,0c-.56,0-.79.15-.78.76"/><path class="cls-1" d="M81,44.13c-.16,0-1.89,0-2.55,0a2.38,2.38,0,0,0-1.53.51,10.71,10.71,0,0,0-.89,1s-.15.22-.26.2-.12-.14-.1-.34c.08-.92.32-4.73.39-5.94,0-.41-.14-.73-.6-.73-.19,0-2,.06-2.71.06a.61.61,0,0,0-.64.68c0,.18.21,15.42.24,17.83a.29.29,0,0,0,.34.31h2a.28.28,0,0,0,.28-.26c0-.1.38-6.15.48-8.18A3,3,0,0,1,76,47.48c.31-.25,1-.77,1.26-1a1.1,1.1,0,0,1,.73-.21l1.15,0c.37,0,.37,0,.68.26.15.11.37.26.56.41a.94.94,0,0,1,.45.89c0,.09.19,7.27.23,9,0,.48.07.85.56.85H83c.46,0,.5-.37.53-.8,0-.12.38-7.26.54-9.1a2.14,2.14,0,0,0-.44-1.65c-.09-.12-.65-.83-1.11-1.45s-.66-.63-1.52-.63"/><path class="cls-1" d="M148.84,44c-.9,0-2.14.07-2.59.09a1.64,1.64,0,0,0-1.32.59c-.34.4-.82.91-.9,1-.45.41-.5.24-.48-.23,0-.27.07-1.06.1-1.4,0-.6-.33-.76-.82-.76h-1.62c-1,0-1.15,0-1.15,1.15,0,.85,0,9.8,0,12.54a.74.74,0,0,0,.68.82l1.47,0c.26,0,.56-.32.59-.83.15-2.16.52-8,.56-8.38a1.36,1.36,0,0,1,.49-1c.47-.36,1.1-.82,1.3-1a1.09,1.09,0,0,1,.78-.26l1.14,0a1.38,1.38,0,0,1,.69.19,4.51,4.51,0,0,1,.73.7.76.76,0,0,1,.31.69c0,2,.15,8.53.15,9s.2.83.5.84,1,0,1.17,0,.54-.24.59-.67c.24-2,.77-8.17.85-8.84a2.16,2.16,0,0,0-.63-2c-.59-.73-1.09-1.34-1.5-1.79a1.46,1.46,0,0,0-1.13-.43"/><path class="cls-1" d="M122.29,44.25a2,2,0,1,0,2-2,2,2,0,0,0-2,2"/><path class="cls-1" d="M174.76,43.32c.76.16.72.11,1.09.56s.44.53.61.76.19.25.4.55.07.39-.34.62c-.22.12-1.25.67-1.48.77s-.48.15-.64-.18c-.35-.68-.35-.78-.63-.9l-1.41-.58a1.35,1.35,0,0,0-1.27-.08l-1.39.78c-.37.21-.41.32-.38.74s.05.8.08,1c.09.71.19.86,1.1,1.12.66.19,3.32.91,4.12,1.12,1.42.38,1.51.36,1.81.81s1.06,1.73,1.22,2a1.68,1.68,0,0,1,.1,1.44c-.12.44-.49,1.76-.63,2.22-.27.95-.35,1-.92,1.31s-2.45,1.05-2.82,1.19c-1,.41-.75.49-2,.18L168,57.89a3.68,3.68,0,0,1-1.33-.92c-.25-.23-1-.9-1.3-1.22a.39.39,0,0,1,.1-.57c.29-.16,1.42-.75,1.73-.9s.67-.3,1,.12.54.6.73.82a1.06,1.06,0,0,0,.49.36c.46.23.66.36,1.33.68s.84.3,1.41,0,1.24-.6,1.61-.8.86-.33,1-.88a2,2,0,0,0-.25-1.14c-.08-.21-.23-.59-.34-.84-.25-.54-.32-.64-.91-.84-.37-.12-3.38-.91-4.37-1.17-1.72-.46-1.74-.57-2-1.42s-.64-1.71-.81-2.29c-.1-.34,0-.52.53-1.49s.35-.68.51-1,.28-.22,1.2-.65c.39-.19,1.86-.85,2.22-1a1.35,1.35,0,0,1,.93-.14l3.31.67"/></svg>