<svg id="Layer_1" data-name="Layer 1" xmlns="http://www.w3.org/2000/svg" viewBox="0 0 250 100"><defs><style>.cls-1{fill:#010101;}</style></defs><path class="cls-1" d="M85.72,49.68c1.47,0,3.23-.66,5-.6.28-.72.35-1.48.55-2.19.25-.88.74-1.7,1-2.59.09-.34.15-.69.26-1s.21-.49.31-.74a3,3,0,0,0,.13-.39,2.14,2.14,0,0,1,.07-.43c.07-.16.13-.32.19-.49.1-.34.17-.68.25-1,.12-.55.37-1,.53-1.54a13.4,13.4,0,0,0,.38-1.61,8,8,0,0,1,.57-1.42c.23-.62.34-1.26.6-1.88s.41-1.38.63-2.07c.36-1.12,1-2.37,1.43-3.47a14.84,14.84,0,0,0,.91-2.35c.06-.26.11-.55.2-.82s.31-.88.55-.94c.45-.1,1.14.86,1.4,1.2a3.27,3.27,0,0,1,.4.64,2.37,2.37,0,0,1,.27.61,2.11,2.11,0,0,1,0,.71,7.93,7.93,0,0,1-.41,1.42c-.1.24-.19.48-.28.72-.31.81-.55,1.55-.86,2.34-.44,1.13-1,2.24-1.32,3.43-.24.78-.5,1.58-.77,2.37a25.73,25.73,0,0,0-.86,2.77,16.2,16.2,0,0,1-.73,2c-.24.67-.48,1.39-.68,2.07-.34,1.2-.86,2.34-1.11,3.56-.06.23-.1.48-.17.71a1.12,1.12,0,0,0-.1.62,9.58,9.58,0,0,0,2.35.17c.23-.55.48-1.07.69-1.63a8.6,8.6,0,0,1,1.64-2.58,4.17,4.17,0,0,0,.45-.36,6.64,6.64,0,0,1,2.2-1.79,4.06,4.06,0,0,1,.85-.32c.61,0,.87.75,1.35,1,.3.16.59.34.87.52a2.66,2.66,0,0,1,.85.75,2.25,2.25,0,0,1,.4,1.07,8.7,8.7,0,0,1-.26,1.51,5.05,5.05,0,0,1-.52,2.06,12.2,12.2,0,0,1-1,.72l-.53.35a2.47,2.47,0,0,1-.76.34,8.75,8.75,0,0,0-.87.27,15.43,15.43,0,0,1-1.74.58l-1,.13a5.33,5.33,0,0,0,.69,3.8c.42.21,1.13-.15,1.57-.4a8.8,8.8,0,0,0,1.65-1.28,16.57,16.57,0,0,0,2.89-3.57,9,9,0,0,1,.6-1,1.46,1.46,0,0,0,.22-.33c.18-.53.42-1,.65-1.53a7,7,0,0,0,.61-1.67c.11-.78-.24-1.6,0-2.3a3.88,3.88,0,0,1,.49-.73,1.14,1.14,0,0,0,.17-.43c0-.4.51-.47.82-.28s.48.66.73,1a9.55,9.55,0,0,1,.71.7c.18.37-.05.85.23,1.1.69-.13,1.17-.51,1.76-.45a2.83,2.83,0,0,1,1,.42c.31.17.78.15,1,.42a2.55,2.55,0,0,1,.37.69,3.31,3.31,0,0,1,.31,1.55c0,.51-.43.82-.61,1.18a10.29,10.29,0,0,0-3.27,4.87c0,.2-.21.56-.09.74s.61-.35.72-.43l.32-.26,1-.88a14.39,14.39,0,0,0,1.8-1.87c-.43-1,.2-1.84,1.08-1.23a14.55,14.55,0,0,0,1.42-2c.18-.26.41-.48.58-.75a7.49,7.49,0,0,0,.44-.9c.18-.36.46-.62.65-1s.37-.65.54-1l.27-.52a1.39,1.39,0,0,0,.17-.44,5.09,5.09,0,0,0,0-.55c0-.19,0-.4,0-.59a1.69,1.69,0,0,1,0-.55c.06-.13.27-.15.42-.21s0-.21.07-.23a.35.35,0,0,1,.13-.18.82.82,0,0,1,.52-.14.94.94,0,0,1,.81.39,1.59,1.59,0,0,1,.17.6,2.67,2.67,0,0,1,1,1.72c0,.27-.21.53-.25.79a9.82,9.82,0,0,0,.33,3.39,27.69,27.69,0,0,1,.47,3.53c.29-.14.43-.48.61-.74a16.84,16.84,0,0,0,1-1.71,20.26,20.26,0,0,1,1-1.95c.21-.32.45-.63.67-1a14.59,14.59,0,0,1,1.34-1.86c.35-.36.74-.67,1.12-1,.19-.15.39-.31.58-.48a3.46,3.46,0,0,1,.52-.49,2.67,2.67,0,0,1,.57-.16,4.69,4.69,0,0,1,.65-.14,2,2,0,0,1,1.2.1,2.42,2.42,0,0,1,1,.76c.21.36.39.7.8.84a1.1,1.1,0,0,0,.35.05c.2,0,.39-.08.56.06a.86.86,0,0,1,.26.55,2.52,2.52,0,0,1-.21,1.21,4.29,4.29,0,0,1-.19.5,2.14,2.14,0,0,1-.28.39,4.34,4.34,0,0,0-.33.54,6.26,6.26,0,0,0-.32.75,7.51,7.51,0,0,1-.39.68c-.21.43-.35.76-1,.51a2.78,2.78,0,0,1-.59-.37,1.61,1.61,0,0,1-.44-.38c-.14-.18-.1-.41-.15-.63s-.17-.41-.18-.54a1.31,1.31,0,0,1,.21-.6c.06-.12.14-.34,0-.44s-.4,0-.54.05a3.82,3.82,0,0,0-.93.95,11.17,11.17,0,0,0-1.19,1.4c-.16.24-.3.56-.49.86a3.28,3.28,0,0,0-.48.86c-.29,1-.46,1.74.34,2.52a.9.9,0,0,0,.37.17,1.65,1.65,0,0,1,.32.18,1.3,1.3,0,0,0,.9.22,10.73,10.73,0,0,0,2.94-1.16,7.71,7.71,0,0,0,1-.76,4.27,4.27,0,0,0,.92-.88,2.24,2.24,0,0,0,.21-.38c.28-.63.54-1.24.78-1.88.16-.42.34-.82.5-1.24.07-.21.14-.43.2-.64a8.47,8.47,0,0,1,.65-1.13c.23-.49.44-1,.67-1.49.13-.28.26-.57.4-.85.25-.53.42-1.09.64-1.63a6.81,6.81,0,0,1,.35-.79,2.52,2.52,0,0,0,.31-.69,2.83,2.83,0,0,1,.21-.7,4.19,4.19,0,0,0,.33-.71c.25-.64.59-1.24.85-1.88a13.26,13.26,0,0,1,.54-1.36c.34-.64.53-1.36.88-2a9.3,9.3,0,0,0,.61-1.3,11.42,11.42,0,0,1,.69-1.16c.24-.5.36-1.07.61-1.58s.49-.95.69-1.45a11.49,11.49,0,0,1,.56-1.41c.15-.28.41-1.1.68-1.2.75-.25,1.4.94,1.71,1.44a2,2,0,0,1,.32.7,4.89,4.89,0,0,1-.15,1.39,15.47,15.47,0,0,1-1.28,3.34c-1.17,2-2.31,4.1-3.52,6.1-.19.3-.41.62-.58.94a5.37,5.37,0,0,0-.27.8c-.11.28-.28.52-.4.77a4.15,4.15,0,0,0-.28.69,2.9,2.9,0,0,1-.2.61c-.1.2-.2.4-.29.61a6.87,6.87,0,0,0,1.08-.55l.49-.32a6.25,6.25,0,0,1,1-.41,1.64,1.64,0,0,1,1.11-.09,3.32,3.32,0,0,1,1.24.67,4.85,4.85,0,0,1,.77.64,2.41,2.41,0,0,1,.54.85c.19.67-.17,1.15-.28,1.72-.05.29,0,.58-.06.86a3.41,3.41,0,0,1-.27.69c-.24.45-.54.86-.75,1.31-.12.25-.2.52-.33.77s-.39.53-.54.84-.22.62-.35.93-.31.68-.46,1-.45,1,0,1.12c.31.1,1-.32,1.38-.62s.55-.49.84-.72a6.85,6.85,0,0,0,.9-.71c.3-.32.61-.64.89-1,.15-.61.08-1.4.28-2s.51-1.14.79-1.76a9.61,9.61,0,0,1,2.91-3.58,6.14,6.14,0,0,1,.71-.6,2.3,2.3,0,0,1,2.18.44c.3.27.69.57,1,.86s1.14.76,1.3,1.39a2.17,2.17,0,0,1-.06,1c-.08.38-.16.76-.26,1.14a3,3,0,0,1-.48,1.11,7.5,7.5,0,0,1-.56.53c-.35.35-.73.65-1.1,1a13.72,13.72,0,0,1-1.47,1.14c-.32.22-.78.68-1.35.57s-.79-.58-1.2-.77a3.15,3.15,0,0,0,.76,2.56.83.83,0,0,0,.5.34c.54.18,1.08-.19,1.51-.47a18.09,18.09,0,0,0,1.67-1.45,9.45,9.45,0,0,0,.93-.74,5.11,5.11,0,0,0,.54-.73,8.74,8.74,0,0,1,1.11-1.35c.22-.21.5-.35.71-.56s.4-.48.65-.78a3.63,3.63,0,0,0,.91-2.22c.08-.64.11-1.28.22-2s.14-1.13.27-1.76c.08-.37.14-.67.21-1.15a35.66,35.66,0,0,1,1.56-5.06c.13-.42.16-.85.31-1.26s.38-.76.49-1.16.15-.71.27-1.05a6.9,6.9,0,0,1,.55-.95c.18-.32.32-.65.47-1,.62-1.29,1.23-2.64,1.92-3.93.34-.65.76-1.27,1.06-1.87s.28-1.2.88-1.29a3,3,0,0,1,1.7.52c.52.39.18,1.66,0,2.33a10.08,10.08,0,0,0-.27,1.63,3.1,3.1,0,0,1-.1.68,12.69,12.69,0,0,0-.42,1.72c-.09.64-.17,1.28-.29,1.91-.07.35-.24.65-.28,1a3.92,3.92,0,0,1-.22,1.22A10.69,10.69,0,0,0,169,34.3a5.5,5.5,0,0,1-.58,1.57,6,6,0,0,0-.54,1.31c-.17.48-.41,1-.62,1.41-.32.72-.64,1.45-1,2.15-.64,1.2-1.39,2.39-2.11,3.58-.15.24-.25.51-.37.72s-.43.44-.5.69a7.26,7.26,0,0,0,0,2.45c.08.58.1,1.16.17,1.73a7,7,0,0,0,.13.8c0,.17.09.51.27.57a2.69,2.69,0,0,0,1,0,1.94,1.94,0,0,0,.94-.28c.23-.15.48-.27.73-.4a6.71,6.71,0,0,1,.68-.4,4,4,0,0,0,1.46-1.13c.3-.31.68-1.08,1.14-1.15s.84.58.63,1.14a6.91,6.91,0,0,1-.65,1.15,5.28,5.28,0,0,1-.95,1.26c-.44.41-.92.77-1.39,1.14-.13.1-.21.23-.33.31s-.29.15-.42.25a6.71,6.71,0,0,1-.86.51,3.15,3.15,0,0,1-.95.44,7.81,7.81,0,0,1-1.44.1,2.19,2.19,0,0,1-1-.08c-.32-.15-.6-.37-.92-.51a1.64,1.64,0,0,1-.8-1.14,9.18,9.18,0,0,1-.3-1.74c0-.33,0-.67,0-1-1.66,1.19-3.59,3.52-5.45,4.72a3.19,3.19,0,0,1-2,.19c-.47-.12-.83-.48-1.28-.64a2,2,0,0,1-.89-.56c-.3-.36-.53-.76-.82-1.14a2.76,2.76,0,0,0-.54-.54c-.06,0-.41.23-.46.26a3.89,3.89,0,0,0-.5.41,3.82,3.82,0,0,1-.36.34,7.28,7.28,0,0,1-.87.62,5.74,5.74,0,0,1-2.16.75,3.11,3.11,0,0,1-.68,0,3.16,3.16,0,0,1-1.25-.43,2.45,2.45,0,0,1-1-.73,1.55,1.55,0,0,1-.21-.73,5.57,5.57,0,0,1,.24-1.22,8.8,8.8,0,0,1,.29-1.2c.22-.66.62-1.31.85-2,.17-.47.4-.91.6-1.36a6,6,0,0,0,.26-1.32c0-.34.14-.82-.14-1.09-.51-.49-1.42-.11-1.91.18l-.79.49a2.1,2.1,0,0,0-.6.4c-.12.14-.22.3-.34.44s-.36.33-.53.52a1.52,1.52,0,0,0-.28.62q-.09.27-.21.54c-.14.35-.3.7-.44,1s-.41.93-.62,1.55a30.07,30.07,0,0,0-.88,2.9c-.11.49-.09,1-.25,1.51-.06.16-.33.54-.51.58s-.6-.21-.88-.32c-.59-.24-1.12-.29-1.27-1.05a6.17,6.17,0,0,0-1.22.65c-.16.09-.33.24-.5.34a2.15,2.15,0,0,1-.61.18,1.57,1.57,0,0,0-.31.08,1.71,1.71,0,0,1-.59.15h-.71c-.49,0-1-.08-1.45-.13a2.72,2.72,0,0,1-.8-.12,2.94,2.94,0,0,1-.62-.42,5.5,5.5,0,0,1-1.12-1.19A4.32,4.32,0,0,1,126,51.4a3.53,3.53,0,0,0-.9,1c-.25.36-.47.76-.74,1.13a12.31,12.31,0,0,1-1.69,2.05,3.93,3.93,0,0,1-2.64.66c-1.74-.26-2.8-1.65-3.7-2.94-.64.57-1.39,1.37-2.14,2a4.51,4.51,0,0,1-1.39,1,3.35,3.35,0,0,1-1.37.22,4.55,4.55,0,0,1-.73-.09,1.25,1.25,0,0,1-.6-.19,1.47,1.47,0,0,1-.38-.57,4.86,4.86,0,0,1-.39-1.53c0-.31,0-.61,0-.92a3.15,3.15,0,0,1,.14-1c.08-.29.23-.76.33-1.08a7.26,7.26,0,0,1,.56-1.27c.18-.31.67-1,.65-1.18-.06-.56-1-.49-1.31-.68a5.85,5.85,0,0,0-1.06,1.51c-.18.26-.34.51-.49.77s-.25.58-.41.85-.4.5-.56.77-.31.56-.48.82c-.37.54-.63,1.12-1,1.66a9.87,9.87,0,0,1-1.14,1.52A5.19,5.19,0,0,1,103,57.26a3.05,3.05,0,0,1-1,.2,9.85,9.85,0,0,0-1.21.2,4.57,4.57,0,0,1-1.33.15,3.79,3.79,0,0,1-.95-.35,4.15,4.15,0,0,1-.71-.32,2.14,2.14,0,0,1-.55-.65c-.12-.19-.3-.33-.42-.51A7.32,7.32,0,0,1,96,52.07c-.93-.1-1.88-.15-2.76-.3a21.28,21.28,0,0,0-.75,2.29c-.24.81-.44,1.62-.61,2.44a9.43,9.43,0,0,1-.18,1c0,.15-.12.29-.18.44-.47,1.25-.91,2.5-1.26,3.8a2.8,2.8,0,0,1-.27.65c-.16.31-.36.17-.66.26-.12,0-.2.15-.36.11a.43.43,0,0,1-.25-.33,4.28,4.28,0,0,1,0-1c0-.51-.13-1-.1-1.55s.08-.82.12-1.23A15.08,15.08,0,0,1,89,56.92c.19-.93.19-1.86.38-2.73s.38-1.71.6-2.48a25.49,25.49,0,0,0-5,1.14c-.21.12-.16.43-.25.74a9.26,9.26,0,0,0-.37,1.09c-.2,1-.46,2-.59,3.11-.07.57-.12,1.07-.24,1.63-.29,1.35-.54,2.7-.87,4a1.1,1.1,0,0,1-.13.47c-.11.13-.29.13-.4.25s-.16.54-.38.64a1.35,1.35,0,0,1-.86-.23c-.13-.11-.13-.4-.16-.56a6.2,6.2,0,0,1-.06-1.36,15.44,15.44,0,0,1,.26-2c.07-.37.13-.73.19-1.1.28-1.78.36-3.48.67-5.14a3.85,3.85,0,0,1-1.7.32,2.05,2.05,0,0,1-1.06-1,4.58,4.58,0,0,1-.36-1.14c0-.16-.13-.44-.07-.6s.17-.13.31-.09c.3.07.51-.08.79-.18s.64-.24,1-.35a7.77,7.77,0,0,0,1.84-.76c.13-.51.18-1.05.3-1.56.25-1.12.5-2.17.75-3.37.1-.47.12-1,.22-1.43,0-.15.13-.28.16-.42s0-.32,0-.47a4.11,4.11,0,0,1,.17-.6c.12-.41.27-.82.35-1.24.2-1.08.24-2.24.51-3.35a26,26,0,0,0,.83-3.1,8.1,8.1,0,0,1,.16-1.3c.06-.22.24-.41.3-.63s0-.47,0-.69c.4-1.95,1.13-3.81,1.64-5.72.07-.26.14-.53.2-.79a2.62,2.62,0,0,1,.2-.79,4.22,4.22,0,0,0,.33-.8c.16-.6.22-1.21.36-1.8a4,4,0,0,1,.32-.9c.14-.24.67,0,.83,0s.26.14.4.19a1.24,1.24,0,0,1,.56.31,3.58,3.58,0,0,0,.44.43,2.42,2.42,0,0,1,.78,1,2.07,2.07,0,0,1,.08.86,4.36,4.36,0,0,1-.32.84c-.22.74-.39,1.44-.63,2.15-.68,2-1.37,4.07-2.07,6.12-.11.32-.26.67-.34,1-.22.91-.26,1.86-.54,2.75-.13.43-.31.81-.4,1.25s-.26.84-.36,1.28c-.51,2.14-.91,4.3-1.47,6.38a25.66,25.66,0,0,1-.71,3.45m82.49-20.33a18.83,18.83,0,0,0-1.56,4.12,5.62,5.62,0,0,0-.2.64c0,.64-1.73,4.8-1.68,5.38.4-.56,1.88-4.93,2.19-5.55,0-.12.07-.12.06-.21a15.93,15.93,0,0,0,1.31-4.38h-.12M102.63,45.66a22.29,22.29,0,0,0-2.31,2.68c-.17.22-.46.46-.41.76a3.67,3.67,0,0,0,2.84-3.45h-.12m16.12,7.86a1.55,1.55,0,0,0,.78.4c.22,0,.59-.37.75-.52a2.29,2.29,0,0,0,.86-1.53c.08-1.5-.4-3.26-.41-4.71-.06,0-.07,0-.13,0-1.28,1.41-1.86,3.4-3,4.92a10.23,10.23,0,0,1,.75,1.07,2.38,2.38,0,0,0,.42.39m33.73-5.85c.54-.21,2.87-2.42,2.73-3.86-1-.22-2.52,3.24-2.73,3.86"/><path class="cls-1" d="M121.13,10.37c0,.71.25,1.54.27,2.38.43.06,1.47-.44,1.38.23-.06.44-.87.31-1.38.39a20.13,20.13,0,0,0,.3,2.57c.46,0,1.66-.49,1.77,0s-2,.63-2.38.38a60.71,60.71,0,0,1-.5-6.41,4.33,4.33,0,0,1,1.54-.22c.23,0,.6-.09.65.19.1.55-1.15.37-1.65.45"/><path class="cls-1" d="M125.86,10.34c-.29-.39-1-.11-1.18.27a1.57,1.57,0,0,0,0,1c.17.49.71.87,1.07,1.41a2.69,2.69,0,0,1,.62,2.73,1.42,1.42,0,0,1-2.19,0c-.19-.3-.55-2.1.07-2s0,1.86.89,2a.77.77,0,0,0,.81-.92c-.12-1.44-1.83-2.1-1.85-3.61a1.82,1.82,0,0,1,.23-.92,1.16,1.16,0,0,1,2.15.62c0,.15,0,.6-.27.53-.14,0-.2-.32-.21-.43a1.16,1.16,0,0,0-.12-.6"/><path class="cls-1" d="M130.22,10.37c-.22.27-.81,0-1.19.05,0,1.59-.06,3.18-.19,4.77l-.06.64c0,.3,0,.61-.44.53s-.14-.69-.12-1c.14-1.56.11-3.38.23-5,0,.08-.92,0-1,0s-.36-.08-.34-.24.4-.2.52-.21a5.91,5.91,0,0,1,1.19,0c.64,0,1.57,0,1.38.49"/><path class="cls-1" d="M134.22,16.55c.11.2.23.4.36.59a1,1,0,0,0,.48.47c.26.11.54.17.81.26a17.72,17.72,0,0,0,1.76.51c.33.07.66.13,1,.17,1.33.16,2.65.16,3.92.34a23.57,23.57,0,0,1,3.45.77,12.74,12.74,0,0,1,4.37,2c.13.1,1.07,1.07.47,1.26-.41.13-.61-.54-.81-.73a7,7,0,0,0-1.53-.92,13.29,13.29,0,0,0-1.77-.69,25.19,25.19,0,0,0-3.91-1,51.07,51.07,0,0,1-6.45-.92A3.93,3.93,0,0,1,134,17.39a2.58,2.58,0,0,1-.22-.44c0-.13-.07-.25-.22-.3a2.11,2.11,0,0,1-.35,0,2.88,2.88,0,0,1-.31-.13,1.66,1.66,0,0,1-.73-1.14,15.6,15.6,0,0,1,.46-3.34c.11-.72.1-1.46.54-1.8a1.86,1.86,0,0,1,1.64-.09,2.13,2.13,0,0,1,.58,1.08,7.83,7.83,0,0,1-.16,1.65,23.19,23.19,0,0,1-.45,2.34,2.35,2.35,0,0,1-.57,1.38m-1.35-2.61c-.12.85-.17,2,.58,2.12s.67-.41.8-1c.19-.93.38-1.78.5-2.8a4,4,0,0,0,.11-.92,1,1,0,0,0-.56-.8.64.64,0,0,0-.92.32c-.07.3-.06.62-.1.92s-.13.67-.2,1-.15.77-.21,1.15"/><path class="cls-1" d="M119.9,16.55c-.59.47-.92-.21-1.15-.69-.46-.94-1-2.13-1.3-3a20.51,20.51,0,0,0,.34,2.84c.06.34.29,1.05-.23,1s-.51-1.52-.57-1.92c-.21-1.2-.21-2.22-.39-3.42a2.86,2.86,0,0,1-.06-.58c0-.28.18-.51.48-.35a1.48,1.48,0,0,1,.54.78c.49,1.12.89,2.41,1.42,3.49a17.16,17.16,0,0,0-.19-2.45c-.05-.62-.44-2.13.23-2.12.35.11.24.5.27.85.14,1.77.59,3.71.61,5.52"/><path class="cls-1" d="M136.93,10.56c.14,0,.22.26.23.38a4.07,4.07,0,0,1-.11.78c-.12.9-.27,1.93-.42,2.92a4.22,4.22,0,0,0-.15,1.23,1,1,0,0,0,1.07.69c.79-.12.73-1.16.89-2.08s.31-1.42.45-2.53c.05-.39.16-1.09.47-1s.16.74.11,1.3c-.1,1-.33,1.69-.46,2.65s-.27,2-1.15,2.26a1.51,1.51,0,0,1-2-1.62c0-.62.31-1.32.38-1.91s.13-1.32.23-2a2.18,2.18,0,0,1,.31-1c.05,0,.07,0,.11,0"/><path class="cls-1" d="M116.29,16.93c-.51.3-.6-.89-.68-1.29-.24-1.15-.37-2.19-.54-3.31,0-.29-.16-.56-.2-.86s-.08-.58.09-.73.48.49.51.66.06.39.1.59a15,15,0,0,1,.3,1.88c.1,1.17.65,2.25.42,3.06"/><path class="cls-1" d="M112.34,11.84c.24.72.42,1.5.62,2.26.26.05,1.52-.75,1.69-.19s-1.14.57-1.54.8a7,7,0,0,0,.38,1.65c.13.43.45,1.32-.07,1.34s-.65-1.2-.77-1.65c-.06-.23,0-.53-.08-.76-.18-1.25-.82-2.76-.76-3.92a15.79,15.79,0,0,1,1.68-.46c.24,0,.62.06.5.43s-1.3.3-1.65.5"/><path class="cls-1" d="M141.38,16c-.29-.13-.56-.28-.84-.43a7.13,7.13,0,0,0-.53,1,2.65,2.65,0,0,1-.27.5.44.44,0,0,1-.21.17c-.39.12-.37-.3-.29-.57a5.86,5.86,0,0,1,.46-.9,40,40,0,0,1,2-4.18c.48-.33.34.39.34.84,0,.29.06.66.08,1.07a30.41,30.41,0,0,1-.16,3.38c0,.44.06.93-.26,1-.65.06-.24-1.33-.28-1.8m-.65-1c.25.08.44.23.69.31a9.44,9.44,0,0,0,0-2.38c-.21.72-.52,1.34-.73,2.07"/><path class="cls-1" d="M144.38,12.1a54.4,54.4,0,0,1-1.19,5.45c.26.28,1.55.31,1.5.85s-.83,0-1,0c-.4-.14-1-.2-1.11-.46s.15-1,.27-1.5c.32-1.38.82-3.16,1.19-4.26,0,0,.21-.24.38,0"/><path class="cls-1" d="M107.24,13c.15.66.41,1.53.62,2.26a5.51,5.51,0,0,0,.88-.28,1.41,1.41,0,0,1,.45-.07c.34,0,.44.28.17.52a1.8,1.8,0,0,1-.85.29s-.47.11-.46.15c.19.79.54,1.4.69,2.23.67-.09,1.36-.66,2-.43.26.48-.41.6-.88.74s-1.29.55-1.61,0a7.88,7.88,0,0,1-.38-1.31,32.55,32.55,0,0,1-1.24-4.41,6.73,6.73,0,0,1,2-.66c.19,0,.31.09.34.2.14.54-1.36.57-1.69.73"/><path class="cls-1" d="M147.1,12.79c.34.15.09.52.05.73-.33,1.33-.6,2.59-1,3.95-.16.49-.23,1.61-.89,1.34-.23-.43.1-.94.27-1.45.31-.95.52-2,.85-3a3.3,3.3,0,0,1,.72-1.54Z"/><path class="cls-1" d="M149.6,14.14a26,26,0,0,1-1,2.79c-.12.43-.2.93-.35,1.35s-.27,1.1-.57,1.11c-.59,0-.13-1,0-1.3.49-1.42,1-2.78,1.5-4.11,0,0-.62-.23-.67-.26a.6.6,0,0,1-.27-.2c0-.08-.12-.43.05-.38a6.68,6.68,0,0,1,1.58.42c.49.16,1,.37,1,.58,0,.61-1,.07-1.23,0"/><path class="cls-1" d="M106.82,17.8c.09.2.18.42.26.63s.28.73-.11.81-.5-.62-.65-1a8.54,8.54,0,0,1-.65-1.58,9.23,9.23,0,0,1-1.23.34,13.87,13.87,0,0,0,.49,1.38,6.13,6.13,0,0,1,.24.68c0,.22.24.73-.13.78s-.41-.51-.49-.72c-.2-.6-.53-1.32-.8-2.08a18,18,0,0,1-.61-2.22c0-.22-.25-.54-.18-.75.11-.38.53.27.59.4s.1.44.16.65c.14.48.39.93.5,1.34a4.83,4.83,0,0,0,1.27-.38c-.14-.53-.3-.95-.43-1.57-.08-.38-.42-1.15,0-1.19.23,0,.44.56.5.77a8.9,8.9,0,0,0,.24,1c.17.47.31,1,.48,1.43.08.24.16.47.26.7s.17.36.25.54"/><path class="cls-1" d="M151.43,14.17a.24.24,0,0,1,.06.11,3.75,3.75,0,0,1,0,.82c0,.53,0,1,.11,1.57.35-.35.86-.57,1.27-.92.17-.16.29-.37.46-.53s.44-.31.56-.17-.28.67-.41.82c-.59.65-1.46,1.12-2,1.83-.18.53-.49,1.48-.76,2.2-.13.31-.16.89-.69.57a8.09,8.09,0,0,1,.69-2.34,4.63,4.63,0,0,0,.27-2c0-.36-.08-.72-.09-1.09s0-.69.19-.88a.21.21,0,0,1,.31,0"/><path class="cls-1" d="M101.45,15.1c.48,1.09,1,2.64,1.57,4,.16.38.69,1.32.12,1.42s-.59-.78-.73-1.11a42.17,42.17,0,0,1-1.5-4c-.37.08-.77.44-1.19.23-.08-.4.55-.61,1-.81a6.51,6.51,0,0,1,1.31-.53c.14,0,.38,0,.38.26,0,.41-.69.39-1,.62"/><path class="cls-1" d="M122.2,32c.9,0,1.83,0,2.61,0a1.67,1.67,0,0,1,0,.83A2.18,2.18,0,0,1,124,33c0,1.66,0,3.52,0,5.29a.92.92,0,0,1-.88,0V32.9h-1c-.09-.23-.17-.79.11-.87"/><path class="cls-1" d="M127.63,32.14c.06,1.83.07,4.22,0,6.17-.21.18-.54,0-.8,0a21,21,0,0,1-.08-2.79c-.12-.09-.4,0-.58,0a22.84,22.84,0,0,1-.08,2.79c-.29.06-.73.14-.91-.07a53.83,53.83,0,0,1,.1-6,1.78,1.78,0,0,1,.89,0v2.35c.12.09.4,0,.58,0a15.78,15.78,0,0,1,.08-2.42,1.2,1.2,0,0,1,.8,0"/><path class="cls-1" d="M130.65,32.32c.06.2.07.59-.08.7a5.71,5.71,0,0,1-1,0,15,15,0,0,0,0,1.66,5.29,5.29,0,0,1,1,0c0,.2.09.64,0,.78s-.61,0-.92.07a17.66,17.66,0,0,0,0,1.8,5.8,5.8,0,0,1,1,0c0,.2.12.48,0,.67a5.07,5.07,0,0,1-2,0c0-1.28-.08-2.58-.08-4a5.49,5.49,0,0,1,.12-1.84,4.73,4.73,0,0,1,2,0"/><path class="cls-1" d="M128.49,59.35c.75-.1,1.09.44,1.21,1.08a12.27,12.27,0,0,1,.05,2.57c0,.27,0,.53,0,.79,0,.46.21.94-.08,1.35a1.5,1.5,0,0,1-1.12.55,1.69,1.69,0,0,1-1.06-.34c-.43-.45-.28-3.38-.22-4.42,0-.85.31-1.46,1.2-1.58m.44,1a.33.33,0,0,0-.21-.19.46.46,0,0,0-.57.26,9.64,9.64,0,0,0,0,2.38c0,.31-.05.62,0,.93a2.76,2.76,0,0,0,.15,1.14.26.26,0,0,0,.27.11c.37,0,.38-.29.45-.61a7,7,0,0,0,.1-1.11c0-.66,0-1.31-.05-2l0-.51a1.5,1.5,0,0,0,0-.43"/><path class="cls-1" d="M126.34,61.84c-.23-.06-.58,0-.79-.07a1.7,1.7,0,0,1-.1-.59c0-.31.08-.74-.33-.84s-.56.38-.59.67a21.66,21.66,0,0,0,0,2.23c0,.63-.09,1.44.31,1.58.83.29.47-1.07.68-1.66a1.31,1.31,0,0,1,.68,0,2.68,2.68,0,0,1-.23,2.23,1.58,1.58,0,0,1-2.15-.27,2.57,2.57,0,0,1-.19-.75,29.62,29.62,0,0,1,.15-4.23,1.41,1.41,0,0,1,1.77-.72,1.17,1.17,0,0,1,.47.31,1.14,1.14,0,0,1,.3.39,3.19,3.19,0,0,1,.06.54,7,7,0,0,1-.07,1.18"/><path class="cls-1" d="M106,61.39c-.16,0-.54.08-.64,0-.11-.32.12-.85-.12-1.09-.85-.38-.86.76-.49,1.35S106.05,63,106.11,64c0,.73-.2,1.79-1.12,1.78-1.13,0-1.24-1.39-1-2.2a1.55,1.55,0,0,1,.71,0c.12.45-.15,1.28.38,1.32.34-.19.28-.75.22-1a2,2,0,0,0-.26-.64c-.33-.58-1-1.15-1.13-1.62a2.34,2.34,0,0,1,.23-1.81,1.63,1.63,0,0,1,1.7-.23c.43.24.4,1.27.22,1.85"/><path class="cls-1" d="M107.69,59.61a17.05,17.05,0,0,1,0,2.23,18.82,18.82,0,0,0,0,2.34c0,.39.34,1,.91.68a8.09,8.09,0,0,0,.14-2.56V59.65a.93.93,0,0,1,.8,0c0,1.07.06,2.13.06,3.19a6.69,6.69,0,0,1-.15,2.28,1.34,1.34,0,0,1-2.14.27,3.81,3.81,0,0,1-.38-1.43c0-.58,0-1.5,0-2.31s-.09-1.93.23-2.11a.83.83,0,0,1,.6.11"/><path class="cls-1" d="M119.39,59.65c.27.6.44,1.31.68,1.92a8.25,8.25,0,0,0,.69-1.85c.2,0,.55-.16.71,0a4,4,0,0,1-.49,1.52,7.85,7.85,0,0,0-.6,1.43c-.19,1,.24,2,0,3.06a2.21,2.21,0,0,1-.68,0c0-.86-.07-1.75,0-2.53a3.13,3.13,0,0,0,0-.6,7,7,0,0,0-.34-.8c-.11-.29-.17-.6-.26-.87a2.17,2.17,0,0,1-.34-1.28c.16-.15.47,0,.67,0"/><path class="cls-1" d="M133.55,59.58c.4,0,.8,0,1.19,0s.9.12,1,.68a4.36,4.36,0,0,1,.12,1.57,1.24,1.24,0,0,1-.24.66c.29.2.18.63.23,1.17.07.8.25,1.77-.49,2a5.91,5.91,0,0,1-2,0c-.07-1.9-.07-4.06,0-6a.15.15,0,0,1,.11-.11m.79.75v1.85a2.38,2.38,0,0,0,.46,0c.22,0,.24-.19.23-.4,0-.39.12-1.06-.2-1.37a1.5,1.5,0,0,0-.49,0m.76,2.76a.46.46,0,0,0-.13-.18c-.11-.06-.63-.23-.63,0v2a1.31,1.31,0,0,0,.76,0s0-.89,0-1a1.9,1.9,0,0,0,0-.82"/><path class="cls-1" d="M139.25,62.71c.47.25-.05,2.22.49,2.94-.23.16-.74,0-1.09.08-.23-.74.07-2.07-.21-2.76a1,1,0,0,0-.43,0c-.09.81,0,1.78,0,2.65a2.75,2.75,0,0,1-1,0c.05-1.94-.09-4.14.08-5.89.89-.11,2.27-.29,2.45.64a4.78,4.78,0,0,1-.26,2.38m-1.32-2.31c0,.67,0,1.32,0,1.93.17,0,.54,0,.66-.14s0-.29,0-.4,0-.3,0-.44a3.08,3.08,0,0,0,0-.53c0-.11,0-.31-.07-.39s-.46,0-.63,0"/><path class="cls-1" d="M147,65.73a3.54,3.54,0,0,1-.12-1.47c0-1.47,0-3.19.08-4.57.75-.14,1.75-.13,2.12.34a1.27,1.27,0,0,1,.16.79c0,.35,0,.69,0,1,0,.75,0,1.51,0,2.26a5.9,5.9,0,0,1,0,1.19c-.15.69-1.5.53-2.19.42m.72-5.33c0,1.47-.05,3,0,4.42a3.62,3.62,0,0,0,.75,0c-.13-1.35.08-3-.11-4.31-.15-.1-.53,0-.68-.08"/><path class="cls-1" d="M114.53,62.86c-.12.82,0,1.9-.08,2.72a.69.69,0,0,1-.8,0,37.3,37.3,0,0,1,0-5.89c.26,0,1.71-.23,2.07,0a1.64,1.64,0,0,1,.27.61,4,4,0,0,1-.23,2.34c-.33.29-.8.15-1.28.15m.64-2.26a5.68,5.68,0,0,0-.72,0,12.35,12.35,0,0,1,0,1.51c.38,0,.64.06.83-.15,0-.48.2-1.15-.15-1.36"/><path class="cls-1" d="M117.69,59.72a47.87,47.87,0,0,1,.12,5c.27,0,1-.08,1.25.07a3.09,3.09,0,0,1,0,.87,5.45,5.45,0,0,1-2.12-.11c0-1.93-.09-4,.08-5.86a1.23,1.23,0,0,1,.71,0"/><path class="cls-1" d="M141.59,59.69c.12,0,.18.88.19,1a10.61,10.61,0,0,0,.24,1.48c.11.43.24.86.33,1.3s.07.81.15,1.2.27.71.15,1.06a.89.89,0,0,1-.75-.11c-.07-.39-.11-.81-.19-1.17-.22-.16-.54,0-.84,0a4,4,0,0,1-.22,1.32,1.46,1.46,0,0,1-.72,0,58.37,58.37,0,0,1,.87-6s0-.07.07-.07a5.58,5.58,0,0,0,.72,0m-.6,3.85h.56a13.59,13.59,0,0,0-.26-1.78c-.14.56-.2,1.19-.3,1.78"/><path class="cls-1" d="M145.89,59.8c0,.9,0,2,0,3a10.78,10.78,0,0,1-.14,2.95,5.27,5.27,0,0,1-.84-.08c-.2-1-.62-2.14-.82-3.28-.14,1,.1,2.26-.05,3.32a1.11,1.11,0,0,1-.83-.08c-.19-1.69,0-4.07,0-5.89a2.63,2.63,0,0,1,.84,0,10.07,10.07,0,0,1,1,3.1c.13-1-.08-2.25.12-3.13a1.85,1.85,0,0,1,.78.07"/><path class="cls-1" d="M110.67,59.69c.69.15,1.38-.23,1.85.07a4.22,4.22,0,0,1,.23,2.87c-.31.41-.82.26-1.35.3-.12.8,0,1.85-.08,2.65a1.11,1.11,0,0,1-.76-.08V59.8a.2.2,0,0,1,.11-.11m.68,2.34c.28,0,.64,0,.8-.07-.05-.43,0-.94-.12-1.33a1.57,1.57,0,0,0-.68-.07Z"/><path class="cls-1" d="M131.1,64.48c0,.43.09,1-.15,1.21a.87.87,0,0,1-.72-.11,7.32,7.32,0,0,1,0-1.17c.23-.16.63,0,.83.07"/><path class="cls-1" d="M129.17,70.8c.31-.67-.42-1.09-.92-1.26-3.83-.44-3.14,4.47-.3,4.58a11.69,11.69,0,0,0,3.66-1c.26-.08.91-.35,1.17,0s-.31.83-.15,1.07c.86.29,1.84-1,2.82-.82A.75.75,0,0,1,136,74.5h29c.38,0,1.64-.09,1.7.2.13.52-1.41.34-1.85.34-26,0-52.75-.05-79.34-.05-.41,0-2,.2-2-.34,0-.31,1.28-.19,1.66-.19h28.69c0-.24-.42-.65-.19-1.08,1.42-.51,2.38.74,3.55.78.22-.39-.75-.55-.39-1.17s1.8.53,2.24.69a5.74,5.74,0,0,0,3.26.34A2.54,2.54,0,0,0,124,70.76a1.76,1.76,0,0,0-1.51-1.13c-.9,0-1.94.42-1.76,1.51.73.06.71-.71,1.47-.73,1.35,0,1.32,2,.14,2.34a1.74,1.74,0,0,1-2.14-2.19,2.39,2.39,0,0,1,3-1.21,2.32,2.32,0,0,1,1.22,1.16c.69,1.66-.47,3-1.41,4,1-.08,2.19,0,3.31-.06-.61-1.07-1.7-2.72-.88-4.18a2.47,2.47,0,0,1,1.85-1.17,2.67,2.67,0,0,1,2,.48,1.9,1.9,0,0,1-1.51,3.12c-1.23-.17-1.42-2.3,0-2.39.62,0,.9.29,1.36.44"/><path class="cls-1" d="M136.92,78.06c.4,2,.8,4,1.31,5.85-.43,0-1.06.06-1.55,0-.11-.32-.09-.77-.2-1.08a3.1,3.1,0,0,0-.88,0,5.66,5.66,0,0,0-.24,1.16,4.81,4.81,0,0,1-1.51-.09c.41-2,.8-4,1.37-5.85a4.2,4.2,0,0,1,1.7,0m-1.07,3.56h.29c0-.33,0-.74-.2-.94,0,.38-.11.58-.09.94"/><path class="cls-1" d="M132.87,78.11c0,1.93.08,4.19-.05,5.89-.41,0-.94.08-1.21-.1a25.62,25.62,0,0,1,0-2.63c-.35.85-.54,1.84-.93,2.63a5,5,0,0,1-1.12,0,13.37,13.37,0,0,1-.77-2.34c-.12.68,0,1.7-.1,2.25a3.13,3.13,0,0,1-1.22,0,44,44,0,0,1,0-5.75,11,11,0,0,1,1.65,0c.44.93.58,2.15,1,3.07.39-.94.56-2.11,1-3a4.63,4.63,0,0,1,1.7,0"/><path class="cls-1" d="M105.84,78.16c0,.23,0,.74,0,1.12H105c-.27,1.64,0,3-.1,4.53-.45,0-1,0-1.51,0-.13-1.3,0-3,0-4.49a5.93,5.93,0,0,0-1.11-.09c-.17-.32,0-.66-.06-1.07,1.31,0,2.34,0,3.61,0"/><path class="cls-1" d="M116.21,78.11a21,21,0,0,1,2.54,0c1.65.54.73,3,1,5-.23,1.18-2.46.85-3.66.73-.08-1.77-.08-3.88,0-5.65a.27.27,0,0,1,.14-.14m1.22,1.17v3.55a1.49,1.49,0,0,0,.83-.1,7.77,7.77,0,0,0,0-3.36,1.63,1.63,0,0,0-.83-.09"/><path class="cls-1" d="M147.78,78.21a16,16,0,0,1-1.27,2.63c.4,1.25,1.39,1.92,2,3a15.57,15.57,0,0,1-2.05,0,9.87,9.87,0,0,0-1.07-1.41c-.14.41.07,1.17-.14,1.51h-1.46c-.09-1.82-.08-4,0-5.79a9.88,9.88,0,0,1,1.46,0,10.55,10.55,0,0,1,0,1.51,12,12,0,0,1,1-1.56,5.46,5.46,0,0,1,1.51,0"/><path class="cls-1" d="M109.54,80.79c.9.48.34,2.13.93,2.92a4,4,0,0,1-1.71.05c-.5-.54.32-2.42-.72-2.44-.12.75,0,1.72-.11,2.49a3.56,3.56,0,0,1-1.26,0c-.12-1.76,0-3.92,0-5.6,1,0,2.83-.43,3.27.53a1.85,1.85,0,0,1-.35,2.05M108,80.3a1.21,1.21,0,0,0,.63-.1,2.94,2.94,0,0,0-.09-.88c-.11-.1-.45,0-.54-.09Z"/><path class="cls-1" d="M141.93,80.79c.9.48.34,2.13.93,2.92a4,4,0,0,1-1.71.05c-.51-.54.32-2.42-.73-2.44-.11.75,0,1.72-.09,2.49a3.61,3.61,0,0,1-1.27,0c-.12-1.76,0-3.92-.05-5.6,1.05,0,2.83-.43,3.27.53a1.86,1.86,0,0,1-.35,2.05m-1.56-.49a1.23,1.23,0,0,0,.64-.1,2.63,2.63,0,0,0-.1-.88c-.1-.1-.44,0-.54-.09Z"/><path class="cls-1" d="M113.88,78.21a9,9,0,0,1,.68,2.77c.22,1,.61,1.91.78,2.83-.32.17-.88,0-1.46,0a9.74,9.74,0,0,1-.39-1.26c-.16-.1-.5,0-.73,0a3.47,3.47,0,0,0-.19,1.31,11.22,11.22,0,0,1-1.66,0c.32-1.77.76-3.84,1.26-5.6.45,0,1.12,0,1.71,0m-1,3.16h.33a7.88,7.88,0,0,0-.19-.87,3.77,3.77,0,0,0-.14.87"/><path class="cls-1" d="M166.63,86.68c0,.69-1,.49-1.71.49-2.14,0-4.46,0-6.62,0s-4.64-.13-7.21,0c-4.53.15-13.35-.15-19.34,0,.06.23.29.55.15.88-.32.76-1.64.15-2.19-.11-.29,1.15-1.24.12-1.9-.14a2.62,2.62,0,0,0-1.61-.24,1.46,1.46,0,0,0-.63,2c.26.39,1.35.69,1.6-.2-.22-.15-.57.43-1,.1s0-1,.35-1.08a1.12,1.12,0,0,1,1.21.59c.37,1.44-1.7,1.7-2.39,1s-.19-2.14.54-2.77H124c.19.57.68.84.78,1.41a1.49,1.49,0,0,1-1.85,1.71,1.09,1.09,0,0,1-.54-1.76c.39-.43,1.7-.47,1.56.44-.11.74-.92.33-1.26.49.34.77,1.56.29,1.65-.39a1.55,1.55,0,0,0-.88-1.51c-1.18-.32-1.9,1.49-3,.92-.17-.09-.24-.23-.24-.58-.45.63-2.64.63-1.8-.73-10.82,0-22.19,0-32.93,0-.38,0-1.92.11-2-.19-.11-.48,1-.32,1.46-.35,4.36-.22,8.92,0,13.15,0h37.75c3.58,0,7.88,0,9.79,0,1.69,0,5.07-.06,8.42-.06h11.2c.46,0,1-.13,1.37.2"/><path class="cls-1" d="M123.76,78.11a1.77,1.77,0,0,1,.06,1.36,5.59,5.59,0,0,1-1.42,0v.93c.39.07,1-.17,1.46,0a2.57,2.57,0,0,1,0,1.17,4.83,4.83,0,0,1-1.41.09,4.58,4.58,0,0,0,0,1.07,9.85,9.85,0,0,0,1.46,0,2.24,2.24,0,0,1,0,1.21,16.11,16.11,0,0,1-2.83.1,39.93,39.93,0,0,1,0-5.89,16,16,0,0,1,2.68,0"/></svg>