<svg id="Layer_1" data-name="Layer 1" xmlns="http://www.w3.org/2000/svg" viewBox="0 0 250 100"><defs><style>.cls-1{fill:#010101;}</style></defs><polygon class="cls-1" points="40.97 36.36 40.97 58.41 34.95 58.41 34.95 49.01 25.7 49.01 25.7 58.41 19.64 58.41 19.64 36.36 25.7 36.36 25.7 44.32 34.95 44.32 34.95 36.36 40.97 36.36"/><path class="cls-1" d="M54.53,42.11h5.24v16.3H54.53V56.85a4.82,4.82,0,0,1-1.77,1.28,7.86,7.86,0,0,1-3.37.75c-1.15,0-3.3-.16-4.52-1.72C44,56,43.78,55,43.78,52.35V42.11h5.27V52.23a3,3,0,0,0,.41,1.93,2.7,2.7,0,0,0,2.08.82,3.74,3.74,0,0,0,1.8-.41,2.25,2.25,0,0,0,1.19-2.31Z"/><path class="cls-1" d="M64.67,52.91a7.84,7.84,0,0,0,5.17,2.25c1.26,0,3.16-.37,3.16-1.59a1,1,0,0,0-.68-.94,12.58,12.58,0,0,0-3-.62,22.4,22.4,0,0,1-2.38-.5,6.91,6.91,0,0,1-3-1.41A4.21,4.21,0,0,1,62.62,47c0-2.68,2.52-5.46,7.49-5.46A13.74,13.74,0,0,1,78,44L74.8,46.76a7.83,7.83,0,0,0-4.45-1.62c-2,0-2.52.75-2.52,1.22,0,.94,1.13,1.12,2.83,1.4,3.57.59,7.72,1.47,7.72,5.35s-4.22,5.71-8.4,5.71a12.18,12.18,0,0,1-8.61-3.16Z"/><path class="cls-1" d="M85.7,36.33v7.49a7.06,7.06,0,0,1,5.1-2.15,6.28,6.28,0,0,1,3.78,1.16c1.56,1.22,1.83,2.74,1.83,4.87V58.41h-5.2V49.88A7.13,7.13,0,0,0,91,47.39a2.48,2.48,0,0,0-2.45-1.63,2.8,2.8,0,0,0-2.14.94c-.68.84-.68,2.19-.68,3.59v8.12H80.46V36.33Z"/><path class="cls-1" d="M116.93,40.42c1.74,0,4.77,0,4.77,3.22,0,3.4-2.73,3.47-5,3.47h-3.61V40.42Zm-9.83,18h6V51.2h4c3.27-.07,7.69-.16,9.77-4.09a7.45,7.45,0,0,0,.81-3.44,8,8,0,0,0-1.36-4.53c-2.11-2.78-5.61-2.78-9.56-2.78H107.1Z"/><path class="cls-1" d="M140,42.11h5.24v16.3H140V56.85a4.74,4.74,0,0,1-1.77,1.28,7.89,7.89,0,0,1-3.37.75c-1.15,0-3.3-.16-4.52-1.72-.92-1.18-1.09-2.15-1.09-4.81V42.11h5.27V52.23a3,3,0,0,0,.41,1.93A2.68,2.68,0,0,0,137,55a3.74,3.74,0,0,0,1.8-.41A2.26,2.26,0,0,0,140,52.26Z"/><path class="cls-1" d="M157.6,45.23c2.14.5,2.78,2.78,2.78,4.93,0,2.57-1.11,5.1-3.67,5.1a3.43,3.43,0,0,1-2.35-.94,5.62,5.62,0,0,1-1.26-4,6.1,6.1,0,0,1,1.09-3.84,3.35,3.35,0,0,1,2.69-1.31,3,3,0,0,1,.72.09m-4.87-3.06h-4.67v21.9h5.28V57.35a7.87,7.87,0,0,0,4.39,1.38c6.09,0,7.69-5.19,7.69-8.53,0-5.44-3.37-8.47-7.72-8.47a6.93,6.93,0,0,0-4.47,1.44c-.16.15-.33.34-.5.53Z"/><path class="cls-1" d="M177,45.23c2.15.5,2.79,2.78,2.79,4.93,0,2.57-1.12,5.1-3.67,5.1a3.44,3.44,0,0,1-2.35-.94,5.62,5.62,0,0,1-1.26-4,6.1,6.1,0,0,1,1.09-3.84,3.36,3.36,0,0,1,2.69-1.31,2.82,2.82,0,0,1,.71.09m-4.86-3.06h-4.67v21.9h5.28V57.35a7.87,7.87,0,0,0,4.39,1.38c6.09,0,7.69-5.19,7.69-8.53,0-5.44-3.37-8.47-7.73-8.47a6.86,6.86,0,0,0-4.45,1.44,6.5,6.5,0,0,0-.51.53Z"/><rect class="cls-1" x="186.96" y="42.08" width="5.17" height="16.34"/><path class="cls-1" d="M199.87,48.23a4.13,4.13,0,0,1,1-2.16A3.82,3.82,0,0,1,203.58,45a3.87,3.87,0,0,1,2.56.91,3.78,3.78,0,0,1,1,2.31Zm8.51,4.19a4.69,4.69,0,0,1-4.49,2.87,3.81,3.81,0,0,1-4-4.06h12.69c-.07-1.85-.2-5-2.52-7.31a9.07,9.07,0,0,0-6.39-2.34c-7,0-9.12,5.06-9.12,9,0,5.34,3.7,8.44,9,8.44a10.25,10.25,0,0,0,6.7-2.31,13.69,13.69,0,0,0,2.15-2.44Z"/><path class="cls-1" d="M216.65,52.91a7.84,7.84,0,0,0,5.17,2.25c1.26,0,3.17-.37,3.17-1.59a1,1,0,0,0-.69-.94,12.48,12.48,0,0,0-3-.62,22.22,22.22,0,0,1-2.37-.5,6.89,6.89,0,0,1-3-1.41A4.21,4.21,0,0,1,214.6,47c0-2.68,2.52-5.46,7.49-5.46A13.74,13.74,0,0,1,230,44l-3.23,2.75a7.88,7.88,0,0,0-4.46-1.62c-2,0-2.51.75-2.51,1.22,0,.94,1.12,1.12,2.82,1.4,3.57.59,7.72,1.47,7.72,5.35s-4.22,5.71-8.4,5.71a12.18,12.18,0,0,1-8.61-3.16Z"/><path class="cls-1" d="M192.41,38.32a2.88,2.88,0,0,1-5.67,0,2.88,2.88,0,0,1,5.67,0"/><path class="cls-1" d="M171.57,39.87h.4c.15,0,.43,0,.43.27s-.31.29-.51.29h-.32Zm-.54-.38v2.36h.54v-1c.56,0,.58,0,.67.51a1.21,1.21,0,0,0,.14.51H173a2,2,0,0,1-.21-.71c-.05-.34-.17-.4-.32-.47.09,0,.48-.15.48-.56a.57.57,0,0,0-.43-.56,1.76,1.76,0,0,0-.6-.06ZM174,40.7a2,2,0,1,0-2,1.84,1.92,1.92,0,0,0,2-1.84m-.18,0A1.85,1.85,0,1,1,171.94,39a1.75,1.75,0,0,1,1.83,1.69"/></svg>