<?xml version="1.0" encoding="utf-8"?>
<!-- Generator: Adobe Illustrator 26.0.2, SVG Export Plug-In . SVG Version: 6.00 Build 0)  -->
<svg version="1.1" id="Layer_1" xmlns="http://www.w3.org/2000/svg" xmlns:xlink="http://www.w3.org/1999/xlink" x="0px" y="0px"
	 viewBox="0 0 250 100" style="enable-background:new 0 0 250 100;" xml:space="preserve">
<style type="text/css">
	.st0{fill:#0047BA;}
</style>
<g>
	<path class="st0" d="M161.6,47.4c-2.1,0-4.3,0-6.4,0c-2.1-7.7-4.3-15.5-6.4-23.2c0,0,0,0-0.1,0c-2.1,7.7-4.3,15.5-6.5,23.2
		c-1.3,0-2.5,0-3.7,0c-0.8,0-1.6,0-2.3,0c-0.2,0-0.4-0.1-0.4-0.3c-2-7.3-4.1-14.7-6.1-22c-0.7-2.4-1.3-4.8-2-7.2
		c0-0.1-0.1-0.2-0.1-0.3c0.1,0,0.2,0,0.3,0c1.9,0,3.9,0,5.8,0c0.2,0,0.3,0.1,0.4,0.3c1.7,7,3.4,14.1,5.1,21.1c0,0.1,0.1,0.2,0.1,0.4
		c0.2-0.8,0.4-1.5,0.6-2.1c1.8-6.4,3.5-12.9,5.3-19.3c0.1-0.3,0.2-0.4,0.5-0.4c2.1,0,4.2,0,6.3,0c0.3,0,0.4,0.1,0.5,0.4
		c1.8,6.5,3.6,13,5.3,19.5c0.2,0.6,0.3,1.2,0.6,1.9c0.2-0.8,0.4-1.5,0.6-2.3c1.5-6.3,3.1-12.7,4.6-19c0.1-0.3,0.2-0.4,0.5-0.4
		c1.8,0,3.7,0,5.5,0c0.1,0,0.3,0,0.4,0C167.1,27.5,164.3,37.4,161.6,47.4z"/>
	<path class="st0" d="M124.3,23.2c-1.2-0.3-2.3-0.6-3.4-0.8c-2.5-0.5-4.9-0.5-7.4,0.2c-3.1,0.9-5.1,2.9-5.9,6
		c-0.7,2.6-0.7,5.2,0,7.7c0.9,3.4,3.1,5.4,6.4,6.2c2.9,0.7,5.8,0.5,8.7-0.3c0.5-0.1,1-0.3,1.5-0.5c0,0,0,0,0.1,0
		c0.2,1.2,0.5,2.4,0.7,3.7c0,0,0,0,0,0.1c0.2,0.9,0.2,0.9-0.7,1.2c-1.6,0.6-3.2,0.9-4.9,1.1c-1.6,0.2-3.2,0.2-4.8,0.1
		c-4.6-0.4-8.5-2.2-11.2-6.1c-1.3-1.8-2-3.9-2.3-6.1c-0.5-2.9-0.3-5.8,0.5-8.6c1.5-4.8,4.8-7.8,9.6-9.3c2.3-0.7,4.7-0.8,7.1-0.7
		c2,0.1,4,0.5,5.9,1.1c0.9,0.3,0.9,0.3,0.8,1.3C124.8,20.8,124.6,22,124.3,23.2z"/>
	<path class="st0" d="M98.2,42.4c0,1.7,0,3.3,0,5c-5.8,0-11.6,0-17.4,0c0-9.9,0-19.9,0-29.8c2.1,0,4.2,0,6.3,0c0,8.3,0,16.5,0,24.9
		C90.8,42.4,94.5,42.4,98.2,42.4z"/>
	<path class="st0" d="M54.8,82.5c0-10,0-19.9,0-29.8c0.1,0,0.2,0,0.2,0c2.8,0,5.5-0.1,8.3,0c4,0.1,7.7,1.3,10.9,3.9
		c2.8,2.3,4.4,5.3,4.9,8.9c0.5,3.5-0.1,6.9-2,9.9c-1.8,2.8-4.3,4.7-7.4,5.9c-2.2,0.8-4.5,1.2-6.8,1.3c-2.5,0-5,0-7.5,0
		C55.1,82.5,55,82.5,54.8,82.5z M57.9,55.2c0,8.3,0,16.5,0,24.8c1.4,0,2.8,0,4.2,0c1.7,0,3.3-0.2,4.9-0.6c3.7-1,6.5-3.2,8.1-6.7
		c0.8-1.8,1.1-3.8,1-5.8c-0.1-1.5-0.4-3-1-4.4c-1.4-3.1-3.8-5.1-6.9-6.3c-1.8-0.7-3.7-1-5.7-1C61,55.2,59.5,55.2,57.9,55.2z"/>
	<path class="st0" d="M159.6,64.8c0.5-0.5,0.9-1,1.4-1.5c2.4-2.3,5.3-3.1,8.5-2.2c2,0.5,3.2,1.9,4.1,3.7c0.7,1.3,1,2.8,1.1,4.3
		c0.1,1,0.1,2.1,0.1,3.1c0,3.3,0,6.6,0,10c0,0.1,0,0.3,0,0.4c-1,0-2,0-3,0c0-0.2,0-0.3,0-0.4c0-3.7,0-7.4,0-11.1
		c0-1.6-0.2-3.1-0.7-4.6c-0.6-1.6-1.7-2.8-3.5-3c-1.6-0.3-3.2,0-4.5,1c-0.9,0.7-1.8,1.6-2.6,2.4c-0.1,0.1-0.1,0.3-0.1,0.5
		c0.3,1.2,0.4,2.4,0.4,3.6c0,3.7,0,7.4,0,11.1c0,0.1,0,0.3,0,0.4c-1,0-2,0-3,0c0-0.1,0-0.3,0-0.4c0-3.9,0-7.7,0-11.6
		c0-1.6-0.2-3.1-0.9-4.5c-1-2.1-2.7-2.9-4.9-2.7c-1.8,0.1-3.1,1.1-4.4,2.3c-0.9,0.9-0.9,0.9-0.9,2.2c0,4.8,0,9.5,0,14.3
		c0,0.1,0,0.3,0,0.4c-1,0-2,0-3,0c0-7.1,0-14.2,0-21.3c0.9,0,1.8,0,2.8,0c0,1,0,1.9,0,3c0.1-0.1,0.2-0.2,0.3-0.3
		c1.7-2,3.9-3.1,6.5-3.2c1.6,0,3.1,0.4,4.3,1.4c0.8,0.7,1.3,1.5,1.8,2.3C159.5,64.6,159.5,64.7,159.6,64.8
		C159.6,64.8,159.6,64.8,159.6,64.8z"/>
	<path class="st0" d="M133.8,70.8c0-1.6,0.1-3.2-0.5-4.7c-0.6-1.6-1.8-2.4-3.4-2.7c-2.4-0.4-4.8,0-6.9,1.3c-0.1,0-0.1,0.1-0.2,0.1
		c-0.1-0.3-0.2-0.6-0.3-1c-0.1-0.4-0.2-0.7-0.4-1.1c-0.1-0.2,0-0.3,0.2-0.5c1.3-0.7,2.6-1.2,4.1-1.4c1.7-0.3,3.4-0.3,5,0.1
		c2.8,0.7,4.4,2.6,5.1,5.4c0.2,0.9,0.3,1.8,0.3,2.7c0,4.3,0,8.7,0,13c0,0.1,0,0.2,0,0.4c-1,0-2,0-3,0c0-0.9,0-1.9,0-2.9
		c-0.1,0.1-0.2,0.2-0.3,0.3c-2.2,2.1-4.7,3.2-7.8,3c-3.1-0.2-5.2-2.4-5.3-5.5c0-1.6,0.3-3,1.5-4.2c0.9-0.9,2.1-1.4,3.3-1.8
		c1.5-0.4,3-0.4,4.4-0.5C131.1,70.9,132.4,70.9,133.8,70.8z M133.8,73c-0.2,0-0.3,0-0.4,0c-1.6,0.1-3.3,0.2-4.9,0.3
		c-1,0.1-2,0.3-2.9,0.7c-1.6,0.7-2.2,1.8-2.1,3.5c0.1,1.5,0.8,2.5,2.1,2.9c0.9,0.3,1.8,0.3,2.7,0.1c2.2-0.4,3.9-1.6,5.4-3.2
		c0.1-0.1,0.1-0.2,0.1-0.3C133.8,75.7,133.8,74.4,133.8,73z"/>
	<path class="st0" d="M115.3,79.2c0.2,0.7,0.3,1.4,0.4,2c0,0.1,0,0.3-0.1,0.3c-3.3,1.4-6.6,1.9-10.1,1c-3.3-0.9-5.3-3.1-6.3-6.3
		c-1.1-3.5-1-7,0.6-10.4c1.3-2.8,3.5-4.6,6.6-5c2.2-0.3,4.4-0.1,6.3,1.2c1.6,1.1,2.5,2.8,3,4.7c0.4,1.9,0.4,3.8,0.1,5.6
		c0,0.1,0,0.1-0.1,0.2c-4.7,0-9.3,0-14,0c0,1.6,0.2,3.2,1,4.6c1,1.9,2.6,2.9,4.7,3.2c2.6,0.4,5.1-0.1,7.5-1.1
		C115,79.3,115.2,79.2,115.3,79.2z M101.7,70.2c3.8,0,7.6,0,11.4,0c0.1-2-0.1-3.8-1.3-5.4c-0.4-0.5-0.9-0.9-1.5-1.2
		c-2.3-1-5.1-0.4-6.7,1.5C102.4,66.5,101.8,68.2,101.7,70.2z"/>
	<path class="st0" d="M181.3,79.2c1.2,0.5,2.4,0.9,3.7,1.1c1.6,0.2,3.2,0.3,4.7-0.2c0.3-0.1,0.6-0.2,0.9-0.4c2-1.1,2.3-3.5,0.6-5
		c-0.6-0.5-1.3-0.9-2-1.3c-1.5-0.7-3-1.3-4.4-2.1c-0.9-0.4-1.7-1.1-2.4-1.8c-2.1-2.2-1.6-6,1.1-7.6c1.2-0.7,2.5-1.1,3.9-1.2
		c2.3-0.2,4.6,0.2,6.7,1.2c0.3,0.1,0.3,0.2,0.3,0.5c-0.2,0.7-0.3,1.4-0.5,2.1c-0.5-0.2-0.9-0.4-1.3-0.6c-1.7-0.7-3.4-1-5.2-0.8
		c-0.7,0.1-1.3,0.3-1.9,0.6c-1.6,0.7-1.5,3-0.7,3.8c0.6,0.6,1.2,1.1,1.9,1.4c1.3,0.6,2.7,1.3,4.1,1.9c1.2,0.6,2.3,1.3,3.2,2.2
		c2,2,1.6,5,0.5,6.7c-1,1.5-2.5,2.3-4.2,2.7c-1.8,0.5-3.6,0.4-5.4,0.2c-1.2-0.2-2.4-0.5-3.6-0.9c-0.2-0.1-0.3-0.2-0.3-0.5
		C181,80.7,181.1,79.9,181.3,79.2z"/>
	<path class="st0" d="M87.6,82.5c-1,0-2,0-3,0c0-7.1,0-14.2,0-21.4c0.9,0,1.9,0,2.8,0c0,1.3,0,2.6,0,3.9c0,0,0,0,0.1,0
		c0-0.1,0.1-0.1,0.1-0.2c1.4-2.5,3.6-3.8,6.4-3.9c0.6,0,1.2,0.1,1.7,0.1c0.1,0,0.2,0.1,0.2,0.2c0,0.8,0,1.5,0,2.3
		c-0.7,0-1.3,0-1.9,0.1c-2.7,0.3-4.9,1.4-6.3,3.8c-0.1,0.2-0.2,0.5-0.2,0.7c0,4.6,0,9.2,0,13.9C87.6,82.2,87.6,82.3,87.6,82.5z"/>
</g>
</svg>
