<?xml version="1.0" encoding="utf-8"?>
<!-- Generator: Adobe Illustrator 27.0.0, SVG Export Plug-In . SVG Version: 6.00 Build 0)  -->
<svg version="1.1" id="Layer_1" xmlns="http://www.w3.org/2000/svg" xmlns:xlink="http://www.w3.org/1999/xlink" x="0px" y="0px"
	 viewBox="0 0 250 100" style="enable-background:new 0 0 250 100;" xml:space="preserve">
<style type="text/css">
	.st0{fill:#13110C;}
</style>
<g>
	<polygon class="st0" points="53.7,30.1 53.7,34.3 63.7,34.3 63.7,68.4 68.6,68.4 68.6,34.3 78.7,34.3 78.7,30.1 	"/>
	<path class="st0" d="M113,35.7c-1.8-1.8-4-3.2-6.4-4.2c-2.4-1-5.1-1.5-7.8-1.5s-5.4,0.5-7.8,1.5c-2.4,1-4.6,2.4-6.4,4.2
		c-1.8,1.8-3.2,3.8-4.2,6.4c-1.1,2.4-1.6,5.1-1.6,7.9c0,3.7,0.9,7.1,2.6,10.2c1.8,3.1,4.2,5.4,7.3,7.1c3.1,1.8,6.4,2.5,10.1,2.5
		s7-0.9,10.1-2.5c3.1-1.8,5.5-4.1,7.3-7.1s2.6-6.5,2.6-10.2c0-2.9-0.5-5.5-1.5-7.9C116.2,39.6,114.8,37.5,113,35.7 M111.8,58.4
		c-1.3,2.4-3.2,4.3-5.4,5.5c-2.3,1.2-4.8,1.9-7.6,1.9c-4.2,0-7.9-1.5-10.7-4.2c-2.7-2.6-4.4-6.8-4.4-11.6s1.6-8.9,4.4-11.6
		c2.7-2.6,6.5-4.2,10.7-4.2c5.6,0,10.3,2.5,13,7.4c1.3,2.4,2.1,5.3,2.1,8.5C113.9,53.2,113.2,55.9,111.8,58.4"/>
	<polygon class="st0" points="154.2,30.1 143,58.1 131.9,30.1 130.3,30.1 120.4,68.4 125.2,68.4 131.9,42.7 142.5,68.4 143.6,68.4 
		154.2,42.7 160.8,68.4 165.8,68.4 155.8,30.1 	"/>
	<path class="st0" d="M182,47.1c-5.4-2.3-8.2-4.6-8.2-7.8c0-1.5,0.5-2.7,1.8-3.7c1.2-1,2.7-1.5,4.6-1.5c3.3,0,6.2,1.4,8.6,4.4h0.8
		l-0.2-5.3c-2.4-2-5.4-3.1-8.9-3.1c-3.1,0-5.6,0.9-7.8,2.5c-2.1,1.8-3.2,4-3.2,6.8c0,2.4,0.9,4.6,2.6,6.5c1.8,1.9,4.1,3.4,6.9,4.7
		c2.6,1.1,4.3,2.1,5.8,3.4c1.5,1.3,2.3,3,2.3,5.1c0,2-0.7,3.6-2,4.8s-3.1,1.9-5.3,1.9c-2.1,0-4-0.5-5.6-1.6
		c-1.6-1.1-3.1-2.5-4.5-4.3h-0.5l-0.3,5.7c3,3,6.6,4.4,10.9,4.4c3.5,0,6.5-1.1,8.8-3.3c2.3-2.2,3.5-4.9,3.5-8.2
		C192.1,53.4,188.6,49.9,182,47.1"/>
	<path class="st0" d="M194.3,32.1c0.3,0,0.4-0.1,0.4-0.3s-0.1-0.3-0.5-0.3h-0.7v0.8h0.8V32.1z M193.5,31h1c0.4,0,0.8,0.2,0.8,0.7
		c0,0.2-0.1,0.4-0.3,0.5c0.2,0,0.2,0.1,0.3,0.3c0,0.3,0,0.4,0.1,0.7l0,0H195c-0.1-0.1,0-0.3-0.1-0.5c0-0.3-0.1-0.3-0.4-0.3h-0.7v1
		h-0.3L193.5,31L193.5,31z M196,32.2c0-1-0.8-1.8-1.6-1.8c-1,0-1.6,0.8-1.6,1.8c0,1,0.7,1.8,1.6,1.8C195.2,34,196,33.2,196,32.2
		 M192.1,32.2c0-1.2,0.9-2.1,2.1-2.1c1.2,0,2.1,0.9,2.1,2.1c0,1.2-0.9,2.1-2.1,2.1C193,34.3,192.1,33.4,192.1,32.2"/>
</g>
</svg>
